<svg version="1.1" xmlns="http://www.w3.org/2000/svg" xmlns:xlink="http://www.w3.org/1999/xlink" width="650" height="500" viewBox="0 0 650 500"><defs/><g/><g transform="scale(1,1)"><g transform="scale(1,1)"><rect fill="rgb(0,0,0)" stroke="none" x="0" y="0" width="650" height="500" fill-opacity="1"/></g><g transform="scale(1,1)"><path fill="rgb(255,255,255)" stroke="rgb(255,255,255)" paint-order="fill stroke markers" d=" M 240 350 L 300 250 L 360 350 Z" fill-opacity="0.19607843137254902" stroke-opacity="1" stroke-linecap="round" stroke-miterlimit="10"/><path fill="none" stroke="rgb(200,200,200)" paint-order="fill stroke markers" d=" M 50 330 L 300 300" stroke-opacity="1" stroke-linecap="round" stroke-miterlimit="10"/><path fill="rgb(255,0,0)" stroke="none" paint-order="stroke fill markers" d=" M 568.1155550916422 75.02433660971116 C 573.3515081739702 81.26430250623025 578.368027484679 87.68515442070691 583.1559480312316 94.27516169763436 L 300 300 Z" fill-opacity="1"/><path fill="rgb(250,150,0)" stroke="none" paint-order="stroke fill markers" d=" M 583.1559480312316 94.27516169763436 C 587.9438685777843 100.86516897456198 592.5002719115942 107.62031471406976 596.816833654749 114.52825751837798 L 300 300 Z" fill-opacity="1"/><path fill="rgb(250,200,0)" stroke="none" paint-order="stroke fill markers" d=" M 596.816833654749 114.52825751837798 C 601.1333953979035 121.43620032268598 605.2074844157811 128.49272949620823 609.0316575006244 135.6849530249382 L 300 300 Z" fill-opacity="1"/><path fill="rgb(100,200,0)" stroke="none" paint-order="stroke fill markers" d=" M 609.0316575006244 135.6849530249382 C 612.8558305854677 142.87717655366816 616.4277567352431 150.20071046038996 619.7409101749104 157.64217492346995 L 300 300 Z" fill-opacity="1"/><path fill="rgb(0,100,200)" stroke="none" paint-order="stroke fill markers" d=" M 619.7409101749104 157.64217492346995 C 623.0540636145777 165.08363938654995 626.106424831098 172.63849850543724 628.8924172750679 180.29294983601602 L 300 300 Z" fill-opacity="1"/></g></g></svg>