<?xml version="1.0" encoding="utf-8"?>
<!-- Generator: Adobe Illustrator 25.2.1, SVG Export Plug-In . SVG Version: 6.00 Build 0)  -->
<svg version="1.1" xmlns="http://www.w3.org/2000/svg" xmlns:xlink="http://www.w3.org/1999/xlink" x="0px" y="0px"
	 viewBox="0 0 471.2 471.2" style="enable-background:new 0 0 471.2 471.2;" xml:space="preserve">
<style type="text/css">
	.st0{fill:#191919;}
	.st1{fill:#FFFFFF;fill-opacity:0.1961;stroke:#FFFFFF;stroke-linecap:round;stroke-miterlimit:10;}
	.st2{fill:none;stroke:#C8C8C8;stroke-linecap:round;stroke-miterlimit:10;}
	.st3{fill:#FF0000;}
	.st4{fill:#FA9600;}
	.st5{fill:#FAC800;}
	.st6{fill:#64C800;}
	.st7{fill:#0064C8;}
	.st8{fill:none;}
	.st9{fill:none;stroke:#FFFFFF;stroke-miterlimit:10;}
	.st10{fill:none;stroke:#AAA9A9;stroke-miterlimit:10;}
	.st11{fill:#7C7C7C;stroke:#FFFFFF;stroke-width:2;stroke-miterlimit:10;}
	.st12{stroke:#FFFFFF;stroke-width:6;stroke-miterlimit:10;}
</style>
<g id="Layer_4">
	<circle class="st0" cx="235.6" cy="237.5" r="207.3"/>
</g>
<g id="Layer_1">
	<g transform="scale(1,1)">
		<g transform="scale(1,1)">
			<path class="st1" d="M277.3,315.8l-113.1-67.9l113.1-67.9L277.3,315.8z"/>
			<path class="st2" d="M257.3,505.8l-30-250"/>
			<path class="st3" d="M70.9,56.3c4.7-3.9,9.5-7.7,14.3-11.4l142.1,210.9L70.9,56.3z"/>
			<path class="st4" d="M85.2,44.9c4.9-3.7,9.9-7.2,14.9-10.6l127.1,221.6L85.2,44.9z"/>
			<path class="st5" d="M100.2,34.2c5.1-3.4,10.2-6.7,15.5-9.8l111.7,231.4L100.2,34.2z"/>
			<path class="st6" d="M115.6,24.4c5.2-3.1,10.6-6.2,15.9-9l95.7,240.5L115.6,24.4z"/>
			<path class="st7" d="M131.6,15.4c5.4-2.9,10.9-5.6,16.4-8.2l79.3,248.6L131.6,15.4z"/>
		</g>
	</g>
	<g transform="scale(1,1)">
		<g transform="scale(1,1)">
			<path class="st1" d="M167.4,286.2l67.9-113.1l67.9,113.1H167.4z"/>
			<path class="st2" d="M-22.6,266.2l250-30"/>
			<path class="st3" d="M426.9,79.8c3.9,4.7,7.7,9.5,11.4,14.3L227.4,236.2L426.9,79.8z"/>
			<path class="st4" d="M438.3,94.2c3.7,4.9,7.2,9.9,10.6,14.9L227.4,236.2L438.3,94.2z"/>
			<path class="st5" d="M449,109.1c3.4,5.1,6.7,10.2,9.8,15.5L227.4,236.2L449,109.1z"/>
			<path class="st6" d="M458.8,124.5c3.1,5.2,6.2,10.6,9,15.9l-240.5,95.7L458.8,124.5z"/>
			<path class="st7" d="M467.8,140.5c2.9,5.4,5.6,10.9,8.2,16.4l-248.6,79.3L467.8,140.5z"/>
		</g>
	</g>
	<g transform="scale(1,1)">
		<g transform="scale(1,1)">
			<path class="st1" d="M194.5,178.2l113.1,67.9l-113.1,67.9V178.2z"/>
			<path class="st2" d="M214.5-11.8l30,250"/>
			<path class="st3" d="M400.9,437.7c-4.7,3.9-9.5,7.7-14.3,11.4L244.5,238.2L400.9,437.7z"/>
			<path class="st4" d="M386.6,449.1c-4.9,3.7-9.9,7.2-14.9,10.6L244.5,238.2L386.6,449.1z"/>
			<path class="st5" d="M371.7,459.8c-5.1,3.4-10.2,6.7-15.5,9.8L244.5,238.2L371.7,459.8z"/>
			<path class="st6" d="M356.2,469.6c-5.2,3.1-10.6,6.2-15.9,9l-95.7-240.5L356.2,469.6z"/>
			<path class="st7" d="M340.3,478.6c-5.4,2.9-10.9,5.6-16.4,8.2l-79.3-248.6L340.3,478.6z"/>
		</g>
	</g>
	<g transform="scale(1,1)">
		<g transform="scale(1,1)">
			<path class="st1" d="M303.9,210.7L236,323.8l-67.9-113.1L303.9,210.7z"/>
			<path class="st2" d="M493.9,230.7l-250,30"/>
			<path class="st3" d="M44.3,417.1c-3.9-4.7-7.7-9.5-11.4-14.3l210.9-142.1L44.3,417.1z"/>
			<path class="st4" d="M32.9,402.8c-3.7-4.9-7.2-9.9-10.6-14.9l221.6-127.1L32.9,402.8z"/>
			<path class="st5" d="M22.3,387.9c-3.4-5.1-6.7-10.2-9.8-15.5l231.4-111.7L22.3,387.9z"/>
			<path class="st6" d="M12.4,372.4c-3.1-5.2-6.2-10.6-9-15.9l240.5-95.7L12.4,372.4z"/>
			<path class="st7" d="M3.4,356.5c-2.9-5.4-5.6-10.9-8.2-16.4l248.6-79.3L3.4,356.5z"/>
		</g>
	</g>
</g>
<g id="Layer_2">
	<g id="Layer_4_copy">
		<path d="M0,471.2h471.2V0H0V471.2z M235.6,30.2c114.5,0,207.3,92.8,207.3,207.3s-92.8,207.3-207.3,207.3S28.3,352,28.3,237.5
			S121.1,30.2,235.6,30.2z"/>
	</g>
	<path id="SVGID_x5F_1_x5F_" class="st8" d="M347.8,88.8c82.1,62.1,98.3,179.1,36.2,261.2s-179.1,98.3-261.2,36.2
		S24.4,207.1,86.5,125S265.6,26.7,347.8,88.8z"/>
	<text>	<textPath  xlink:href="#SVGID_x5F_1_x5F_" startOffset="11411.5068%">
<tspan  style="fill:#FFFFFF; font-family:'AvenirNext-UltraLight'; font-size:11.6097px; letter-spacing:75;">This has become a CD. It originally started looking like the Dark Side of the Moon Pink Floyd album cover but I wanted it to be different so I duplicated it. Here is my Not Pink Floyd CD.</tspan>	</textPath>
</text>
</g>
<g id="Layer_3">
	<circle class="st9" cx="235.6" cy="237.5" r="198.8"/>
	<circle class="st9" cx="235.6" cy="237.5" r="207.3"/>
	<circle class="st10" cx="235.6" cy="237.5" r="202.7"/>
	<circle class="st11" cx="235.6" cy="237.5" r="39.8"/>
	<circle class="st12" cx="235.6" cy="237.5" r="24.2"/>
	<circle class="st10" cx="235.6" cy="237.5" r="198.8"/>
</g>
</svg>
